<mxfile host="app.diagrams.net" modified="2024-03-11T11:55:01.687Z" agent="Mozilla/5.0 (Windows NT 10.0; Win64; x64) AppleWebKit/537.36 (KHTML, like Gecko) Chrome/122.0.0.0 Safari/537.36" etag="OwuQo8LlqEKRaO5lzB0i" version="24.0.2" type="device">
  <diagram name="Page-1" id="fyjnEVe0-X-UPA_ckTFd">
    <mxGraphModel dx="1434" dy="784" grid="1" gridSize="10" guides="1" tooltips="1" connect="1" arrows="1" fold="1" page="1" pageScale="1" pageWidth="850" pageHeight="1100" math="0" shadow="0">
      <root>
        <mxCell id="0" />
        <mxCell id="1" parent="0" />
        <mxCell id="bqqhJ2vdEcRwNEn7tDVJ-6" value="" style="edgeStyle=orthogonalEdgeStyle;rounded=0;orthogonalLoop=1;jettySize=auto;html=1;" edge="1" parent="1" source="bqqhJ2vdEcRwNEn7tDVJ-3" target="bqqhJ2vdEcRwNEn7tDVJ-5">
          <mxGeometry relative="1" as="geometry" />
        </mxCell>
        <mxCell id="bqqhJ2vdEcRwNEn7tDVJ-3" value="start" style="ellipse;whiteSpace=wrap;html=1;" vertex="1" parent="1">
          <mxGeometry x="330" y="40" width="120" height="80" as="geometry" />
        </mxCell>
        <mxCell id="bqqhJ2vdEcRwNEn7tDVJ-4" value="end" style="ellipse;whiteSpace=wrap;html=1;" vertex="1" parent="1">
          <mxGeometry x="340" y="540" width="120" height="80" as="geometry" />
        </mxCell>
        <mxCell id="bqqhJ2vdEcRwNEn7tDVJ-8" value="" style="edgeStyle=orthogonalEdgeStyle;rounded=0;orthogonalLoop=1;jettySize=auto;html=1;" edge="1" parent="1" source="bqqhJ2vdEcRwNEn7tDVJ-5" target="bqqhJ2vdEcRwNEn7tDVJ-7">
          <mxGeometry relative="1" as="geometry" />
        </mxCell>
        <mxCell id="bqqhJ2vdEcRwNEn7tDVJ-5" value="int[] arr = {1,2,3,4};" style="shape=parallelogram;perimeter=parallelogramPerimeter;whiteSpace=wrap;html=1;fixedSize=1;" vertex="1" parent="1">
          <mxGeometry x="330" y="170" width="120" height="60" as="geometry" />
        </mxCell>
        <mxCell id="bqqhJ2vdEcRwNEn7tDVJ-10" value="" style="edgeStyle=orthogonalEdgeStyle;rounded=0;orthogonalLoop=1;jettySize=auto;html=1;" edge="1" parent="1" source="bqqhJ2vdEcRwNEn7tDVJ-7" target="bqqhJ2vdEcRwNEn7tDVJ-9">
          <mxGeometry relative="1" as="geometry" />
        </mxCell>
        <mxCell id="bqqhJ2vdEcRwNEn7tDVJ-7" value="int sum = 0;" style="whiteSpace=wrap;html=1;" vertex="1" parent="1">
          <mxGeometry x="330" y="270" width="120" height="60" as="geometry" />
        </mxCell>
        <mxCell id="bqqhJ2vdEcRwNEn7tDVJ-12" value="true" style="edgeStyle=orthogonalEdgeStyle;rounded=0;orthogonalLoop=1;jettySize=auto;html=1;" edge="1" parent="1" source="bqqhJ2vdEcRwNEn7tDVJ-9" target="bqqhJ2vdEcRwNEn7tDVJ-11">
          <mxGeometry relative="1" as="geometry" />
        </mxCell>
        <mxCell id="bqqhJ2vdEcRwNEn7tDVJ-15" value="false" style="edgeStyle=orthogonalEdgeStyle;rounded=0;orthogonalLoop=1;jettySize=auto;html=1;" edge="1" parent="1" source="bqqhJ2vdEcRwNEn7tDVJ-9" target="bqqhJ2vdEcRwNEn7tDVJ-14">
          <mxGeometry relative="1" as="geometry" />
        </mxCell>
        <mxCell id="bqqhJ2vdEcRwNEn7tDVJ-9" value="int i = 0; i &amp;lt; arr.Length; i++" style="shape=hexagon;perimeter=hexagonPerimeter2;whiteSpace=wrap;html=1;fixedSize=1;" vertex="1" parent="1">
          <mxGeometry x="330" y="360" width="120" height="80" as="geometry" />
        </mxCell>
        <mxCell id="bqqhJ2vdEcRwNEn7tDVJ-13" style="edgeStyle=orthogonalEdgeStyle;rounded=0;orthogonalLoop=1;jettySize=auto;html=1;" edge="1" parent="1" source="bqqhJ2vdEcRwNEn7tDVJ-11">
          <mxGeometry relative="1" as="geometry">
            <mxPoint x="390" y="340" as="targetPoint" />
            <Array as="points">
              <mxPoint x="590" y="340" />
            </Array>
          </mxGeometry>
        </mxCell>
        <mxCell id="bqqhJ2vdEcRwNEn7tDVJ-11" value="sum += arr[i];" style="whiteSpace=wrap;html=1;" vertex="1" parent="1">
          <mxGeometry x="530" y="370" width="120" height="60" as="geometry" />
        </mxCell>
        <mxCell id="bqqhJ2vdEcRwNEn7tDVJ-14" value="sum / arr.Length" style="shape=document;whiteSpace=wrap;html=1;boundedLbl=1;" vertex="1" parent="1">
          <mxGeometry x="130" y="360" width="120" height="80" as="geometry" />
        </mxCell>
        <mxCell id="bqqhJ2vdEcRwNEn7tDVJ-16" style="edgeStyle=orthogonalEdgeStyle;rounded=0;orthogonalLoop=1;jettySize=auto;html=1;entryX=0.014;entryY=0.317;entryDx=0;entryDy=0;entryPerimeter=0;" edge="1" parent="1" source="bqqhJ2vdEcRwNEn7tDVJ-14" target="bqqhJ2vdEcRwNEn7tDVJ-4">
          <mxGeometry relative="1" as="geometry">
            <Array as="points">
              <mxPoint x="200" y="565" />
            </Array>
          </mxGeometry>
        </mxCell>
        <mxCell id="bqqhJ2vdEcRwNEn7tDVJ-20" value="" style="edgeStyle=orthogonalEdgeStyle;rounded=0;orthogonalLoop=1;jettySize=auto;html=1;" edge="1" parent="1" source="bqqhJ2vdEcRwNEn7tDVJ-17" target="bqqhJ2vdEcRwNEn7tDVJ-19">
          <mxGeometry relative="1" as="geometry" />
        </mxCell>
        <mxCell id="bqqhJ2vdEcRwNEn7tDVJ-17" value="start" style="ellipse;whiteSpace=wrap;html=1;" vertex="1" parent="1">
          <mxGeometry x="1130" y="40" width="120" height="80" as="geometry" />
        </mxCell>
        <mxCell id="bqqhJ2vdEcRwNEn7tDVJ-18" value="end" style="ellipse;whiteSpace=wrap;html=1;" vertex="1" parent="1">
          <mxGeometry x="1130" y="600" width="120" height="80" as="geometry" />
        </mxCell>
        <mxCell id="bqqhJ2vdEcRwNEn7tDVJ-22" value="" style="edgeStyle=orthogonalEdgeStyle;rounded=0;orthogonalLoop=1;jettySize=auto;html=1;" edge="1" parent="1" source="bqqhJ2vdEcRwNEn7tDVJ-19" target="bqqhJ2vdEcRwNEn7tDVJ-21">
          <mxGeometry relative="1" as="geometry" />
        </mxCell>
        <mxCell id="bqqhJ2vdEcRwNEn7tDVJ-19" value="int[] arr = {1,2,3,4,5};" style="shape=parallelogram;perimeter=parallelogramPerimeter;whiteSpace=wrap;html=1;fixedSize=1;" vertex="1" parent="1">
          <mxGeometry x="1080" y="150" width="220" height="90" as="geometry" />
        </mxCell>
        <mxCell id="bqqhJ2vdEcRwNEn7tDVJ-24" value="" style="edgeStyle=orthogonalEdgeStyle;rounded=0;orthogonalLoop=1;jettySize=auto;html=1;" edge="1" parent="1" source="bqqhJ2vdEcRwNEn7tDVJ-21" target="bqqhJ2vdEcRwNEn7tDVJ-23">
          <mxGeometry relative="1" as="geometry" />
        </mxCell>
        <mxCell id="bqqhJ2vdEcRwNEn7tDVJ-21" value="int sum = 0;&lt;div&gt;int count = 0;&lt;/div&gt;" style="whiteSpace=wrap;html=1;" vertex="1" parent="1">
          <mxGeometry x="1105" y="280" width="170" height="80" as="geometry" />
        </mxCell>
        <mxCell id="bqqhJ2vdEcRwNEn7tDVJ-26" value="true" style="edgeStyle=orthogonalEdgeStyle;rounded=0;orthogonalLoop=1;jettySize=auto;html=1;" edge="1" parent="1" source="bqqhJ2vdEcRwNEn7tDVJ-23" target="bqqhJ2vdEcRwNEn7tDVJ-25">
          <mxGeometry relative="1" as="geometry" />
        </mxCell>
        <mxCell id="bqqhJ2vdEcRwNEn7tDVJ-32" value="false" style="edgeStyle=orthogonalEdgeStyle;rounded=0;orthogonalLoop=1;jettySize=auto;html=1;" edge="1" parent="1" source="bqqhJ2vdEcRwNEn7tDVJ-23" target="bqqhJ2vdEcRwNEn7tDVJ-31">
          <mxGeometry relative="1" as="geometry" />
        </mxCell>
        <mxCell id="bqqhJ2vdEcRwNEn7tDVJ-23" value="int i = 0; i &amp;lt; arr.Length; i++" style="shape=hexagon;perimeter=hexagonPerimeter2;whiteSpace=wrap;html=1;fixedSize=1;" vertex="1" parent="1">
          <mxGeometry x="1110" y="400" width="160" height="80" as="geometry" />
        </mxCell>
        <mxCell id="bqqhJ2vdEcRwNEn7tDVJ-28" value="true" style="edgeStyle=orthogonalEdgeStyle;rounded=0;orthogonalLoop=1;jettySize=auto;html=1;" edge="1" parent="1" source="bqqhJ2vdEcRwNEn7tDVJ-25" target="bqqhJ2vdEcRwNEn7tDVJ-27">
          <mxGeometry relative="1" as="geometry" />
        </mxCell>
        <mxCell id="bqqhJ2vdEcRwNEn7tDVJ-30" value="false" style="edgeStyle=orthogonalEdgeStyle;rounded=0;orthogonalLoop=1;jettySize=auto;html=1;" edge="1" parent="1" source="bqqhJ2vdEcRwNEn7tDVJ-25">
          <mxGeometry relative="1" as="geometry">
            <mxPoint x="1190" y="380" as="targetPoint" />
            <Array as="points">
              <mxPoint x="1450" y="380" />
            </Array>
          </mxGeometry>
        </mxCell>
        <mxCell id="bqqhJ2vdEcRwNEn7tDVJ-25" value="arr[i] % 2 == 0" style="rhombus;whiteSpace=wrap;html=1;" vertex="1" parent="1">
          <mxGeometry x="1390" y="400" width="120" height="80" as="geometry" />
        </mxCell>
        <mxCell id="bqqhJ2vdEcRwNEn7tDVJ-29" style="edgeStyle=orthogonalEdgeStyle;rounded=0;orthogonalLoop=1;jettySize=auto;html=1;" edge="1" parent="1" source="bqqhJ2vdEcRwNEn7tDVJ-27">
          <mxGeometry relative="1" as="geometry">
            <mxPoint x="1190" y="370" as="targetPoint" />
            <Array as="points">
              <mxPoint x="1650" y="370" />
            </Array>
          </mxGeometry>
        </mxCell>
        <mxCell id="bqqhJ2vdEcRwNEn7tDVJ-27" value="sum += arr[i];&lt;div&gt;count++;&lt;/div&gt;" style="whiteSpace=wrap;html=1;" vertex="1" parent="1">
          <mxGeometry x="1590" y="410" width="120" height="60" as="geometry" />
        </mxCell>
        <mxCell id="bqqhJ2vdEcRwNEn7tDVJ-33" style="edgeStyle=orthogonalEdgeStyle;rounded=0;orthogonalLoop=1;jettySize=auto;html=1;entryX=0;entryY=0.5;entryDx=0;entryDy=0;" edge="1" parent="1" source="bqqhJ2vdEcRwNEn7tDVJ-31" target="bqqhJ2vdEcRwNEn7tDVJ-18">
          <mxGeometry relative="1" as="geometry">
            <Array as="points">
              <mxPoint x="950" y="640" />
            </Array>
          </mxGeometry>
        </mxCell>
        <mxCell id="bqqhJ2vdEcRwNEn7tDVJ-31" value="sum / count" style="shape=document;whiteSpace=wrap;html=1;boundedLbl=1;" vertex="1" parent="1">
          <mxGeometry x="890" y="400" width="120" height="80" as="geometry" />
        </mxCell>
      </root>
    </mxGraphModel>
  </diagram>
</mxfile>
